<mxfile host="www.draw.io" modified="2020-02-27T13:43:58.320Z" agent="Mozilla/5.0 (Windows NT 10.0; Win64; x64) AppleWebKit/537.36 (KHTML, like Gecko) Chrome/72.0.3626.96 Safari/537.36" etag="jbvwKAPP9MvT2FEB7BCX" version="12.7.8" type="github">
  <diagram id="NkzRMjwECVClfPyFufu4" name="Page-1">
    <mxGraphModel dx="2208" dy="630" grid="1" gridSize="10" guides="1" tooltips="1" connect="1" arrows="1" fold="1" page="1" pageScale="1" pageWidth="827" pageHeight="1169" math="0" shadow="0">
      <root>
        <mxCell id="0" />
        <mxCell id="1" parent="0" />
        <mxCell id="ab_bX9iZ9XtQMcbPUogD-28" style="edgeStyle=orthogonalEdgeStyle;rounded=0;orthogonalLoop=1;jettySize=auto;html=1;exitX=0.5;exitY=1;exitDx=0;exitDy=0;entryX=0.5;entryY=0;entryDx=0;entryDy=0;fontSize=18;" parent="1" source="ab_bX9iZ9XtQMcbPUogD-26" target="ab_bX9iZ9XtQMcbPUogD-4" edge="1">
          <mxGeometry relative="1" as="geometry" />
        </mxCell>
        <mxCell id="ab_bX9iZ9XtQMcbPUogD-26" value="" style="rounded=0;whiteSpace=wrap;html=1;dashed=1;strokeWidth=1;fillColor=#E6E6E6;fontSize=18;align=left;" parent="1" vertex="1">
          <mxGeometry x="480" y="160" width="200" height="300" as="geometry" />
        </mxCell>
        <mxCell id="ab_bX9iZ9XtQMcbPUogD-13" value="" style="rounded=0;whiteSpace=wrap;html=1;fillColor=#E6E6E6;strokeWidth=1;dashed=1;" parent="1" vertex="1">
          <mxGeometry x="-40" y="160" width="440" height="450" as="geometry" />
        </mxCell>
        <mxCell id="ab_bX9iZ9XtQMcbPUogD-7" style="edgeStyle=orthogonalEdgeStyle;rounded=0;orthogonalLoop=1;jettySize=auto;html=1;exitX=1;exitY=0.5;exitDx=0;exitDy=0;entryX=0;entryY=0.5;entryDx=0;entryDy=0;" parent="1" source="ab_bX9iZ9XtQMcbPUogD-1" target="ab_bX9iZ9XtQMcbPUogD-2" edge="1">
          <mxGeometry relative="1" as="geometry" />
        </mxCell>
        <mxCell id="ab_bX9iZ9XtQMcbPUogD-1" value="P1--MLS&lt;br style=&quot;font-size: 18px&quot;&gt;运营管理平台&lt;br&gt;后端服务" style="rounded=1;whiteSpace=wrap;html=1;fillColor=#dae8fc;strokeColor=#6c8ebf;fontSize=18;fontStyle=1" parent="1" vertex="1">
          <mxGeometry x="-15" y="360" width="145" height="80" as="geometry" />
        </mxCell>
        <mxCell id="ab_bX9iZ9XtQMcbPUogD-9" style="edgeStyle=orthogonalEdgeStyle;rounded=0;orthogonalLoop=1;jettySize=auto;html=1;exitX=1;exitY=0.5;exitDx=0;exitDy=0;entryX=0;entryY=0.5;entryDx=0;entryDy=0;" parent="1" source="ab_bX9iZ9XtQMcbPUogD-2" target="ab_bX9iZ9XtQMcbPUogD-8" edge="1">
          <mxGeometry relative="1" as="geometry" />
        </mxCell>
        <mxCell id="ab_bX9iZ9XtQMcbPUogD-2" value="P3--MLS&lt;br style=&quot;font-size: 18px;&quot;&gt;USSD通道" style="rounded=1;whiteSpace=wrap;html=1;fillColor=#dae8fc;strokeColor=#6c8ebf;fontSize=18;fontStyle=1" parent="1" vertex="1">
          <mxGeometry x="200" y="360" width="150" height="80" as="geometry" />
        </mxCell>
        <mxCell id="ab_bX9iZ9XtQMcbPUogD-6" style="edgeStyle=orthogonalEdgeStyle;rounded=0;orthogonalLoop=1;jettySize=auto;html=1;exitX=0.5;exitY=0;exitDx=0;exitDy=0;entryX=0.5;entryY=1;entryDx=0;entryDy=0;" parent="1" source="ab_bX9iZ9XtQMcbPUogD-3" target="ab_bX9iZ9XtQMcbPUogD-2" edge="1">
          <mxGeometry relative="1" as="geometry" />
        </mxCell>
        <mxCell id="ab_bX9iZ9XtQMcbPUogD-3" value="P4--MLS&lt;br style=&quot;font-size: 18px;&quot;&gt;后台服务" style="rounded=1;whiteSpace=wrap;html=1;fillColor=#dae8fc;strokeColor=#6c8ebf;fontSize=18;fontStyle=1" parent="1" vertex="1">
          <mxGeometry x="200" y="510" width="150" height="80" as="geometry" />
        </mxCell>
        <mxCell id="ab_bX9iZ9XtQMcbPUogD-5" style="edgeStyle=orthogonalEdgeStyle;rounded=0;orthogonalLoop=1;jettySize=auto;html=1;exitX=0;exitY=0.5;exitDx=0;exitDy=0;entryX=1;entryY=0.5;entryDx=0;entryDy=0;" parent="1" source="ab_bX9iZ9XtQMcbPUogD-4" target="ab_bX9iZ9XtQMcbPUogD-3" edge="1">
          <mxGeometry relative="1" as="geometry" />
        </mxCell>
        <mxCell id="ab_bX9iZ9XtQMcbPUogD-4" value="运营商" style="rounded=1;whiteSpace=wrap;html=1;fillColor=#ffe6cc;strokeColor=#d79b00;fontSize=18;fontStyle=1" parent="1" vertex="1">
          <mxGeometry x="520" y="510" width="120" height="80" as="geometry" />
        </mxCell>
        <mxCell id="ab_bX9iZ9XtQMcbPUogD-12" style="edgeStyle=orthogonalEdgeStyle;rounded=0;orthogonalLoop=1;jettySize=auto;html=1;exitX=0.5;exitY=0;exitDx=0;exitDy=0;entryX=1;entryY=0.5;entryDx=0;entryDy=0;" parent="1" source="ab_bX9iZ9XtQMcbPUogD-8" target="ab_bX9iZ9XtQMcbPUogD-10" edge="1">
          <mxGeometry relative="1" as="geometry">
            <Array as="points">
              <mxPoint x="580" y="320" />
              <mxPoint x="440" y="320" />
              <mxPoint x="440" y="250" />
            </Array>
          </mxGeometry>
        </mxCell>
        <mxCell id="ab_bX9iZ9XtQMcbPUogD-8" value="MLSA-U&lt;br&gt;（用户版）" style="rounded=1;whiteSpace=wrap;html=1;fillColor=#d5e8d4;strokeColor=#82b366;fontSize=18;fontStyle=1" parent="1" vertex="1">
          <mxGeometry x="520" y="360" width="120" height="80" as="geometry" />
        </mxCell>
        <mxCell id="ab_bX9iZ9XtQMcbPUogD-11" style="edgeStyle=orthogonalEdgeStyle;rounded=0;orthogonalLoop=1;jettySize=auto;html=1;exitX=0.5;exitY=1;exitDx=0;exitDy=0;entryX=0.5;entryY=0;entryDx=0;entryDy=0;" parent="1" source="ab_bX9iZ9XtQMcbPUogD-10" target="ab_bX9iZ9XtQMcbPUogD-2" edge="1">
          <mxGeometry relative="1" as="geometry" />
        </mxCell>
        <mxCell id="ab_bX9iZ9XtQMcbPUogD-10" value="P5--MLS&lt;br style=&quot;font-size: 18px&quot;&gt;APK服务" style="rounded=1;whiteSpace=wrap;html=1;fillColor=#dae8fc;strokeColor=#6c8ebf;fontSize=18;fontStyle=1" parent="1" vertex="1">
          <mxGeometry x="200" y="210" width="150" height="80" as="geometry" />
        </mxCell>
        <mxCell id="ab_bX9iZ9XtQMcbPUogD-14" value="&lt;b style=&quot;font-size: 20px;&quot;&gt;&lt;font style=&quot;font-size: 20px;&quot;&gt;MLSS&lt;/font&gt;&lt;/b&gt;" style="text;html=1;strokeColor=none;fillColor=none;align=center;verticalAlign=middle;whiteSpace=wrap;rounded=0;dashed=1;fontSize=20;" parent="1" vertex="1">
          <mxGeometry x="-20" y="170" width="40" height="20" as="geometry" />
        </mxCell>
        <mxCell id="ab_bX9iZ9XtQMcbPUogD-16" value="1、手机信息管理&lt;br&gt;2、用户信息管理&lt;br&gt;3、手机功能管理&lt;br&gt;4、MLSA应用管理&lt;br&gt;5、手机活动信息管理&lt;br&gt;6、合约信息管理&lt;br&gt;7、激活码管理&lt;br&gt;8、支付信息&lt;br&gt;9、厂商信息管理&lt;br&gt;10、短信管理" style="text;html=1;strokeColor=none;fillColor=none;align=left;verticalAlign=middle;whiteSpace=wrap;rounded=0;dashed=1;fontSize=20;" parent="1" vertex="1">
          <mxGeometry x="-300" y="260" width="220" height="250" as="geometry" />
        </mxCell>
        <mxCell id="ab_bX9iZ9XtQMcbPUogD-24" style="edgeStyle=orthogonalEdgeStyle;rounded=0;orthogonalLoop=1;jettySize=auto;html=1;entryX=0.5;entryY=1;entryDx=0;entryDy=0;fontSize=18;" parent="1" source="ab_bX9iZ9XtQMcbPUogD-17" target="ab_bX9iZ9XtQMcbPUogD-1" edge="1">
          <mxGeometry relative="1" as="geometry" />
        </mxCell>
        <mxCell id="ab_bX9iZ9XtQMcbPUogD-17" value="P2--MLS&lt;br style=&quot;font-size: 18px&quot;&gt;运营管理平台&lt;br&gt;WEB页面" style="rounded=1;whiteSpace=wrap;html=1;fillColor=#dae8fc;strokeColor=#6c8ebf;fontSize=18;fontStyle=1" parent="1" vertex="1">
          <mxGeometry x="-15" y="510" width="145" height="80" as="geometry" />
        </mxCell>
        <mxCell id="ab_bX9iZ9XtQMcbPUogD-25" style="edgeStyle=orthogonalEdgeStyle;rounded=0;orthogonalLoop=1;jettySize=auto;html=1;fontSize=18;exitX=0.5;exitY=0;exitDx=0;exitDy=0;" parent="1" source="ab_bX9iZ9XtQMcbPUogD-21" target="ab_bX9iZ9XtQMcbPUogD-1" edge="1">
          <mxGeometry relative="1" as="geometry">
            <Array as="points">
              <mxPoint x="580" y="190" />
              <mxPoint x="58" y="190" />
            </Array>
          </mxGeometry>
        </mxCell>
        <mxCell id="ab_bX9iZ9XtQMcbPUogD-21" value="MLSA-M&lt;br&gt;（管理版）" style="rounded=1;whiteSpace=wrap;html=1;fillColor=#d5e8d4;strokeColor=#82b366;fontSize=18;fontStyle=1" parent="1" vertex="1">
          <mxGeometry x="520" y="210" width="120" height="80" as="geometry" />
        </mxCell>
        <mxCell id="ab_bX9iZ9XtQMcbPUogD-29" value="&lt;b&gt;PHONE&lt;/b&gt;" style="text;html=1;strokeColor=none;fillColor=none;align=center;verticalAlign=middle;whiteSpace=wrap;rounded=0;dashed=1;fontSize=20;" parent="1" vertex="1">
          <mxGeometry x="590" y="170" width="90" height="20" as="geometry" />
        </mxCell>
        <mxCell id="ab_bX9iZ9XtQMcbPUogD-57" value="" style="edgeStyle=orthogonalEdgeStyle;rounded=0;orthogonalLoop=1;jettySize=auto;html=1;endArrow=none;endFill=0;fontSize=18;" parent="1" source="ab_bX9iZ9XtQMcbPUogD-30" edge="1">
          <mxGeometry relative="1" as="geometry">
            <mxPoint x="300" y="1320" as="targetPoint" />
          </mxGeometry>
        </mxCell>
        <mxCell id="ab_bX9iZ9XtQMcbPUogD-30" value="MLSS" style="rounded=0;whiteSpace=wrap;html=1;strokeWidth=1;fontSize=18;align=center;" parent="1" vertex="1">
          <mxGeometry x="240" y="680" width="120" height="60" as="geometry" />
        </mxCell>
        <mxCell id="ab_bX9iZ9XtQMcbPUogD-31" value="MLSA" style="rounded=0;whiteSpace=wrap;html=1;dashed=1;strokeWidth=1;fontSize=18;align=center;" parent="1" vertex="1">
          <mxGeometry x="520" y="680" width="120" height="60" as="geometry" />
        </mxCell>
        <mxCell id="ab_bX9iZ9XtQMcbPUogD-36" value="" style="edgeStyle=orthogonalEdgeStyle;rounded=0;orthogonalLoop=1;jettySize=auto;html=1;fontSize=18;endArrow=none;endFill=0;" parent="1" source="ab_bX9iZ9XtQMcbPUogD-32" edge="1">
          <mxGeometry relative="1" as="geometry">
            <mxPoint x="20" y="1320" as="targetPoint" />
          </mxGeometry>
        </mxCell>
        <mxCell id="ab_bX9iZ9XtQMcbPUogD-32" value="运营商" style="rounded=0;whiteSpace=wrap;html=1;strokeWidth=1;fontSize=18;align=center;" parent="1" vertex="1">
          <mxGeometry x="-40" y="680" width="120" height="60" as="geometry" />
        </mxCell>
        <mxCell id="ab_bX9iZ9XtQMcbPUogD-59" value="" style="edgeStyle=orthogonalEdgeStyle;rounded=0;orthogonalLoop=1;jettySize=auto;html=1;endArrow=none;endFill=0;fontSize=18;" parent="1" source="ab_bX9iZ9XtQMcbPUogD-34" edge="1">
          <mxGeometry relative="1" as="geometry">
            <mxPoint x="580" y="1320" as="targetPoint" />
          </mxGeometry>
        </mxCell>
        <mxCell id="ab_bX9iZ9XtQMcbPUogD-34" value="手机(MLSA)" style="rounded=0;whiteSpace=wrap;html=1;strokeWidth=1;fontSize=18;align=center;" parent="1" vertex="1">
          <mxGeometry x="520" y="680" width="120" height="60" as="geometry" />
        </mxCell>
        <mxCell id="ab_bX9iZ9XtQMcbPUogD-43" value="" style="edgeStyle=orthogonalEdgeStyle;rounded=0;orthogonalLoop=1;jettySize=auto;html=1;endArrow=none;endFill=0;fontSize=18;" parent="1" source="ab_bX9iZ9XtQMcbPUogD-41" edge="1">
          <mxGeometry relative="1" as="geometry">
            <mxPoint x="-215" y="1320" as="targetPoint" />
          </mxGeometry>
        </mxCell>
        <mxCell id="ab_bX9iZ9XtQMcbPUogD-41" value="" style="shape=umlActor;verticalLabelPosition=bottom;labelBackgroundColor=#ffffff;verticalAlign=top;html=1;outlineConnect=0;strokeWidth=1;fillColor=#E6E6E6;fontSize=18;align=left;" parent="1" vertex="1">
          <mxGeometry x="-230" y="680" width="30" height="60" as="geometry" />
        </mxCell>
        <mxCell id="ab_bX9iZ9XtQMcbPUogD-45" value="生成激活码" style="curved=1;endArrow=classic;html=1;fontSize=18;" parent="1" edge="1">
          <mxGeometry width="50" height="50" relative="1" as="geometry">
            <mxPoint x="300" y="960" as="sourcePoint" />
            <mxPoint x="300" y="1000" as="targetPoint" />
            <Array as="points">
              <mxPoint x="370" y="970" />
              <mxPoint x="350" y="990" />
            </Array>
          </mxGeometry>
        </mxCell>
        <mxCell id="ab_bX9iZ9XtQMcbPUogD-46" value="用户购机、签署合约" style="endArrow=classic;html=1;fontSize=18;" parent="1" edge="1">
          <mxGeometry width="50" height="50" relative="1" as="geometry">
            <mxPoint x="-210" y="800" as="sourcePoint" />
            <mxPoint x="20" y="800" as="targetPoint" />
          </mxGeometry>
        </mxCell>
        <mxCell id="ab_bX9iZ9XtQMcbPUogD-47" value="同步IMEI及合约信息" style="endArrow=classic;html=1;fontSize=18;" parent="1" edge="1">
          <mxGeometry width="50" height="50" relative="1" as="geometry">
            <mxPoint x="20" y="840" as="sourcePoint" />
            <mxPoint x="300" y="840" as="targetPoint" />
          </mxGeometry>
        </mxCell>
        <mxCell id="ab_bX9iZ9XtQMcbPUogD-48" value="" style="endArrow=classic;html=1;fontSize=18;" parent="1" edge="1">
          <mxGeometry width="50" height="50" relative="1" as="geometry">
            <mxPoint x="-210" y="880" as="sourcePoint" />
            <mxPoint x="580" y="880" as="targetPoint" />
          </mxGeometry>
        </mxCell>
        <mxCell id="ab_bX9iZ9XtQMcbPUogD-49" value="开机" style="text;html=1;align=center;verticalAlign=middle;resizable=0;points=[];labelBackgroundColor=#ffffff;fontSize=18;" parent="ab_bX9iZ9XtQMcbPUogD-48" vertex="1" connectable="0">
          <mxGeometry x="0.1308" y="1" relative="1" as="geometry">
            <mxPoint as="offset" />
          </mxGeometry>
        </mxCell>
        <mxCell id="ab_bX9iZ9XtQMcbPUogD-50" value="" style="endArrow=classic;html=1;fontSize=18;" parent="1" edge="1">
          <mxGeometry width="50" height="50" relative="1" as="geometry">
            <mxPoint x="580" y="920" as="sourcePoint" />
            <mxPoint x="300" y="920" as="targetPoint" />
          </mxGeometry>
        </mxCell>
        <mxCell id="ab_bX9iZ9XtQMcbPUogD-51" value="上送随机数" style="text;html=1;align=center;verticalAlign=middle;resizable=0;points=[];labelBackgroundColor=#ffffff;fontSize=18;" parent="ab_bX9iZ9XtQMcbPUogD-50" vertex="1" connectable="0">
          <mxGeometry x="0.1143" y="-2" relative="1" as="geometry">
            <mxPoint as="offset" />
          </mxGeometry>
        </mxCell>
        <mxCell id="ab_bX9iZ9XtQMcbPUogD-52" value="" style="endArrow=classic;html=1;fontSize=18;" parent="1" edge="1">
          <mxGeometry width="50" height="50" relative="1" as="geometry">
            <mxPoint x="300" y="1040" as="sourcePoint" />
            <mxPoint x="-210" y="1040" as="targetPoint" />
          </mxGeometry>
        </mxCell>
        <mxCell id="ab_bX9iZ9XtQMcbPUogD-53" value="发送激活码、合约信息" style="text;html=1;align=center;verticalAlign=middle;resizable=0;points=[];labelBackgroundColor=#ffffff;fontSize=18;" parent="ab_bX9iZ9XtQMcbPUogD-52" vertex="1" connectable="0">
          <mxGeometry x="0.1143" y="-2" relative="1" as="geometry">
            <mxPoint as="offset" />
          </mxGeometry>
        </mxCell>
        <mxCell id="ab_bX9iZ9XtQMcbPUogD-54" value="" style="endArrow=classic;html=1;fontSize=18;" parent="1" edge="1">
          <mxGeometry width="50" height="50" relative="1" as="geometry">
            <mxPoint x="-215" y="1080" as="sourcePoint" />
            <mxPoint x="575" y="1080" as="targetPoint" />
          </mxGeometry>
        </mxCell>
        <mxCell id="ab_bX9iZ9XtQMcbPUogD-55" value="输入激活码" style="text;html=1;align=center;verticalAlign=middle;resizable=0;points=[];labelBackgroundColor=#ffffff;fontSize=18;" parent="ab_bX9iZ9XtQMcbPUogD-54" vertex="1" connectable="0">
          <mxGeometry x="0.1308" y="1" relative="1" as="geometry">
            <mxPoint as="offset" />
          </mxGeometry>
        </mxCell>
        <mxCell id="ab_bX9iZ9XtQMcbPUogD-60" value="手机激活" style="curved=1;endArrow=classic;html=1;fontSize=18;" parent="1" edge="1">
          <mxGeometry width="50" height="50" relative="1" as="geometry">
            <mxPoint x="580" y="1120" as="sourcePoint" />
            <mxPoint x="580" y="1160" as="targetPoint" />
            <Array as="points">
              <mxPoint x="650" y="1130" />
              <mxPoint x="630" y="1150" />
            </Array>
          </mxGeometry>
        </mxCell>
        <mxCell id="ab_bX9iZ9XtQMcbPUogD-61" value="" style="endArrow=classic;html=1;fontSize=18;" parent="1" edge="1">
          <mxGeometry width="50" height="50" relative="1" as="geometry">
            <mxPoint x="-215" y="1200" as="sourcePoint" />
            <mxPoint x="575" y="1200" as="targetPoint" />
          </mxGeometry>
        </mxCell>
        <mxCell id="ab_bX9iZ9XtQMcbPUogD-62" value="打开MLSA-U" style="text;html=1;align=center;verticalAlign=middle;resizable=0;points=[];labelBackgroundColor=#ffffff;fontSize=18;" parent="ab_bX9iZ9XtQMcbPUogD-61" vertex="1" connectable="0">
          <mxGeometry x="0.1308" y="1" relative="1" as="geometry">
            <mxPoint as="offset" />
          </mxGeometry>
        </mxCell>
        <mxCell id="ab_bX9iZ9XtQMcbPUogD-63" value="" style="endArrow=none;html=1;fontSize=18;startArrow=classic;startFill=1;endFill=0;" parent="1" edge="1">
          <mxGeometry width="50" height="50" relative="1" as="geometry">
            <mxPoint x="-215" y="1240" as="sourcePoint" />
            <mxPoint x="575" y="1240" as="targetPoint" />
          </mxGeometry>
        </mxCell>
        <mxCell id="ab_bX9iZ9XtQMcbPUogD-64" value="显示管理功能和有效期信息" style="text;html=1;align=center;verticalAlign=middle;resizable=0;points=[];labelBackgroundColor=#ffffff;fontSize=18;" parent="ab_bX9iZ9XtQMcbPUogD-63" vertex="1" connectable="0">
          <mxGeometry x="0.1308" y="1" relative="1" as="geometry">
            <mxPoint as="offset" />
          </mxGeometry>
        </mxCell>
        <mxCell id="xUMkr7w50prJORx5Js34-26" value="" style="edgeStyle=orthogonalEdgeStyle;rounded=0;orthogonalLoop=1;jettySize=auto;html=1;endArrow=none;endFill=0;fontSize=18;" edge="1" parent="1" source="xUMkr7w50prJORx5Js34-27">
          <mxGeometry relative="1" as="geometry">
            <mxPoint x="300" y="2120" as="targetPoint" />
          </mxGeometry>
        </mxCell>
        <mxCell id="xUMkr7w50prJORx5Js34-27" value="支付APP" style="rounded=0;whiteSpace=wrap;html=1;strokeWidth=1;fontSize=18;align=center;" vertex="1" parent="1">
          <mxGeometry x="240" y="1434" width="120" height="60" as="geometry" />
        </mxCell>
        <mxCell id="xUMkr7w50prJORx5Js34-28" value="MLSA" style="rounded=0;whiteSpace=wrap;html=1;dashed=1;strokeWidth=1;fontSize=18;align=center;" vertex="1" parent="1">
          <mxGeometry x="520" y="1434" width="120" height="60" as="geometry" />
        </mxCell>
        <mxCell id="xUMkr7w50prJORx5Js34-29" value="" style="edgeStyle=orthogonalEdgeStyle;rounded=0;orthogonalLoop=1;jettySize=auto;html=1;fontSize=18;endArrow=none;endFill=0;" edge="1" parent="1" source="xUMkr7w50prJORx5Js34-30">
          <mxGeometry relative="1" as="geometry">
            <mxPoint x="20" y="2120" as="targetPoint" />
          </mxGeometry>
        </mxCell>
        <mxCell id="xUMkr7w50prJORx5Js34-30" value="MLSA-U" style="rounded=0;whiteSpace=wrap;html=1;strokeWidth=1;fontSize=18;align=center;" vertex="1" parent="1">
          <mxGeometry x="-40" y="1434" width="120" height="60" as="geometry" />
        </mxCell>
        <mxCell id="xUMkr7w50prJORx5Js34-31" value="" style="edgeStyle=orthogonalEdgeStyle;rounded=0;orthogonalLoop=1;jettySize=auto;html=1;endArrow=none;endFill=0;fontSize=18;" edge="1" parent="1" source="xUMkr7w50prJORx5Js34-32">
          <mxGeometry relative="1" as="geometry">
            <mxPoint x="580" y="2120" as="targetPoint" />
          </mxGeometry>
        </mxCell>
        <mxCell id="xUMkr7w50prJORx5Js34-32" value="MLSS" style="rounded=0;whiteSpace=wrap;html=1;strokeWidth=1;fontSize=18;align=center;" vertex="1" parent="1">
          <mxGeometry x="520" y="1434" width="120" height="60" as="geometry" />
        </mxCell>
        <mxCell id="xUMkr7w50prJORx5Js34-33" value="" style="edgeStyle=orthogonalEdgeStyle;rounded=0;orthogonalLoop=1;jettySize=auto;html=1;endArrow=none;endFill=0;fontSize=18;" edge="1" parent="1" source="xUMkr7w50prJORx5Js34-34">
          <mxGeometry relative="1" as="geometry">
            <mxPoint x="-215" y="2120" as="targetPoint" />
          </mxGeometry>
        </mxCell>
        <mxCell id="xUMkr7w50prJORx5Js34-34" value="" style="shape=umlActor;verticalLabelPosition=bottom;labelBackgroundColor=#ffffff;verticalAlign=top;html=1;outlineConnect=0;strokeWidth=1;fillColor=#E6E6E6;fontSize=18;align=left;" vertex="1" parent="1">
          <mxGeometry x="-230" y="1434" width="30" height="60" as="geometry" />
        </mxCell>
        <mxCell id="xUMkr7w50prJORx5Js34-35" value="检测合约到期" style="curved=1;endArrow=classic;html=1;fontSize=18;" edge="1" parent="1">
          <mxGeometry width="50" height="50" relative="1" as="geometry">
            <mxPoint x="20" y="1520" as="sourcePoint" />
            <mxPoint x="20" y="1560" as="targetPoint" />
            <Array as="points">
              <mxPoint x="90" y="1530" />
              <mxPoint x="70" y="1550" />
            </Array>
          </mxGeometry>
        </mxCell>
        <mxCell id="xUMkr7w50prJORx5Js34-42" value="" style="endArrow=classic;html=1;fontSize=18;startArrow=classic;startFill=1;" edge="1" parent="1">
          <mxGeometry width="50" height="50" relative="1" as="geometry">
            <mxPoint x="20" y="1600" as="sourcePoint" />
            <mxPoint x="580" y="1600" as="targetPoint" />
          </mxGeometry>
        </mxCell>
        <mxCell id="xUMkr7w50prJORx5Js34-43" value="同步管理信息" style="text;html=1;align=center;verticalAlign=middle;resizable=0;points=[];labelBackgroundColor=#ffffff;fontSize=18;" vertex="1" connectable="0" parent="xUMkr7w50prJORx5Js34-42">
          <mxGeometry x="0.1143" y="-2" relative="1" as="geometry">
            <mxPoint as="offset" />
          </mxGeometry>
        </mxCell>
        <mxCell id="xUMkr7w50prJORx5Js34-49" value="" style="endArrow=none;html=1;fontSize=18;startArrow=classic;startFill=1;endFill=0;" edge="1" parent="1">
          <mxGeometry width="50" height="50" relative="1" as="geometry">
            <mxPoint x="20" y="2040" as="sourcePoint" />
            <mxPoint x="575" y="2040" as="targetPoint" />
          </mxGeometry>
        </mxCell>
        <mxCell id="xUMkr7w50prJORx5Js34-50" value="反馈支付结果" style="text;html=1;align=center;verticalAlign=middle;resizable=0;points=[];labelBackgroundColor=#ffffff;fontSize=18;" vertex="1" connectable="0" parent="xUMkr7w50prJORx5Js34-49">
          <mxGeometry x="0.1308" y="1" relative="1" as="geometry">
            <mxPoint as="offset" />
          </mxGeometry>
        </mxCell>
        <mxCell id="xUMkr7w50prJORx5Js34-55" value="MLSA" style="rounded=0;whiteSpace=wrap;html=1;dashed=1;strokeWidth=1;fontSize=18;align=center;" vertex="1" parent="1">
          <mxGeometry x="800" y="1434" width="120" height="60" as="geometry" />
        </mxCell>
        <mxCell id="xUMkr7w50prJORx5Js34-56" value="" style="edgeStyle=orthogonalEdgeStyle;rounded=0;orthogonalLoop=1;jettySize=auto;html=1;endArrow=none;endFill=0;fontSize=18;" edge="1" parent="1" source="xUMkr7w50prJORx5Js34-57">
          <mxGeometry relative="1" as="geometry">
            <mxPoint x="860" y="2120" as="targetPoint" />
          </mxGeometry>
        </mxCell>
        <mxCell id="xUMkr7w50prJORx5Js34-57" value="运营商系统" style="rounded=0;whiteSpace=wrap;html=1;strokeWidth=1;fontSize=18;align=center;" vertex="1" parent="1">
          <mxGeometry x="800" y="1434" width="120" height="60" as="geometry" />
        </mxCell>
        <mxCell id="xUMkr7w50prJORx5Js34-59" value="" style="endArrow=classic;html=1;fontSize=18;" edge="1" parent="1">
          <mxGeometry width="50" height="50" relative="1" as="geometry">
            <mxPoint x="20" y="1640" as="sourcePoint" />
            <mxPoint x="1140" y="1640" as="targetPoint" />
          </mxGeometry>
        </mxCell>
        <mxCell id="xUMkr7w50prJORx5Js34-60" value="锁定手机" style="text;html=1;align=center;verticalAlign=middle;resizable=0;points=[];labelBackgroundColor=#ffffff;fontSize=18;" vertex="1" connectable="0" parent="xUMkr7w50prJORx5Js34-59">
          <mxGeometry x="0.1143" y="-2" relative="1" as="geometry">
            <mxPoint as="offset" />
          </mxGeometry>
        </mxCell>
        <mxCell id="xUMkr7w50prJORx5Js34-61" value="MLSA" style="rounded=0;whiteSpace=wrap;html=1;dashed=1;strokeWidth=1;fontSize=18;align=center;" vertex="1" parent="1">
          <mxGeometry x="1080" y="1434" width="120" height="60" as="geometry" />
        </mxCell>
        <mxCell id="xUMkr7w50prJORx5Js34-62" value="" style="edgeStyle=orthogonalEdgeStyle;rounded=0;orthogonalLoop=1;jettySize=auto;html=1;endArrow=none;endFill=0;fontSize=18;" edge="1" parent="1" source="xUMkr7w50prJORx5Js34-63">
          <mxGeometry relative="1" as="geometry">
            <mxPoint x="1140" y="2120" as="targetPoint" />
          </mxGeometry>
        </mxCell>
        <mxCell id="xUMkr7w50prJORx5Js34-63" value="合约手机" style="rounded=0;whiteSpace=wrap;html=1;strokeWidth=1;fontSize=18;align=center;" vertex="1" parent="1">
          <mxGeometry x="1080" y="1434" width="120" height="60" as="geometry" />
        </mxCell>
        <mxCell id="xUMkr7w50prJORx5Js34-64" value="调用支付功能" style="endArrow=classic;html=1;fontSize=18;" edge="1" parent="1">
          <mxGeometry width="50" height="50" relative="1" as="geometry">
            <mxPoint x="-210" y="1760" as="sourcePoint" />
            <mxPoint x="20" y="1760" as="targetPoint" />
          </mxGeometry>
        </mxCell>
        <mxCell id="xUMkr7w50prJORx5Js34-65" value="调用支付界面" style="endArrow=classic;html=1;fontSize=18;" edge="1" parent="1">
          <mxGeometry width="50" height="50" relative="1" as="geometry">
            <mxPoint x="20" y="1800" as="sourcePoint" />
            <mxPoint x="300" y="1800" as="targetPoint" />
          </mxGeometry>
        </mxCell>
        <mxCell id="xUMkr7w50prJORx5Js34-66" value="支付" style="endArrow=classic;html=1;fontSize=18;" edge="1" parent="1">
          <mxGeometry width="50" height="50" relative="1" as="geometry">
            <mxPoint x="-210" y="1840" as="sourcePoint" />
            <mxPoint x="300" y="1840" as="targetPoint" />
          </mxGeometry>
        </mxCell>
        <mxCell id="xUMkr7w50prJORx5Js34-67" value="支付" style="endArrow=classic;html=1;fontSize=18;" edge="1" parent="1">
          <mxGeometry width="50" height="50" relative="1" as="geometry">
            <mxPoint x="300" y="1880" as="sourcePoint" />
            <mxPoint x="860" y="1880" as="targetPoint" />
          </mxGeometry>
        </mxCell>
        <mxCell id="xUMkr7w50prJORx5Js34-68" value="支付完成" style="endArrow=classic;html=1;fontSize=18;" edge="1" parent="1">
          <mxGeometry width="50" height="50" relative="1" as="geometry">
            <mxPoint x="300" y="1920" as="sourcePoint" />
            <mxPoint x="20" y="1920" as="targetPoint" />
          </mxGeometry>
        </mxCell>
        <mxCell id="xUMkr7w50prJORx5Js34-69" value="确认支付结果" style="endArrow=classic;html=1;fontSize=18;" edge="1" parent="1">
          <mxGeometry width="50" height="50" relative="1" as="geometry">
            <mxPoint x="20" y="1960" as="sourcePoint" />
            <mxPoint x="580" y="1960" as="targetPoint" />
          </mxGeometry>
        </mxCell>
        <mxCell id="xUMkr7w50prJORx5Js34-70" value="确认支付结果" style="endArrow=classic;html=1;fontSize=18;" edge="1" parent="1">
          <mxGeometry width="50" height="50" relative="1" as="geometry">
            <mxPoint x="580" y="2000" as="sourcePoint" />
            <mxPoint x="860" y="2000" as="targetPoint" />
          </mxGeometry>
        </mxCell>
        <mxCell id="xUMkr7w50prJORx5Js34-74" value="解锁手机" style="endArrow=classic;html=1;fontSize=18;" edge="1" parent="1">
          <mxGeometry width="50" height="50" relative="1" as="geometry">
            <mxPoint x="20" y="2080" as="sourcePoint" />
            <mxPoint x="1142" y="2080" as="targetPoint" />
          </mxGeometry>
        </mxCell>
      </root>
    </mxGraphModel>
  </diagram>
</mxfile>
